<svg width="68" height="68" viewBox="0 0 68 68" fill="none" xmlns="http://www.w3.org/2000/svg">
<path d="M34.0002 5.18628C18.1122 5.18628 5.18652 18.112 5.18652 34C5.18652 49.888 18.1122 62.8137 34.0002 62.8137C49.8882 62.8137 62.814 49.888 62.814 34C62.814 18.112 49.8882 5.18628 34.0002 5.18628ZM34.0002 57.0537C21.2894 57.0537 10.9465 46.7118 10.9465 34C10.9465 21.2882 21.2889 10.9463 34.0002 10.9463C46.7116 10.9463 57.054 21.2887 57.054 34C57.054 46.7113 46.7116 57.0537 34.0002 57.0537Z" fill="white"/>
<path d="M15.704 41.1198C15.332 41.1198 15.02 41.0358 14.768 40.8678C14.516 40.6878 14.36 40.4478 14.3 40.1478C14.24 39.8358 14.294 39.4878 14.462 39.1038L18.944 29.4558C19.16 28.9878 19.424 28.6458 19.736 28.4298C20.06 28.2138 20.426 28.1058 20.834 28.1058C21.242 28.1058 21.596 28.2138 21.896 28.4298C22.208 28.6458 22.478 28.9878 22.706 29.4558L27.188 39.1038C27.38 39.4878 27.446 39.8358 27.386 40.1478C27.338 40.4598 27.188 40.6998 26.936 40.8678C26.696 41.0358 26.396 41.1198 26.036 41.1198C25.556 41.1198 25.184 41.0118 24.92 40.7958C24.668 40.5798 24.44 40.2318 24.236 39.7518L23.264 37.4658L24.524 38.3838H17.108L18.386 37.4658L17.414 39.7518C17.198 40.2318 16.976 40.5798 16.748 40.7958C16.52 41.0118 16.172 41.1198 15.704 41.1198ZM20.798 31.7238L18.71 36.7098L18.206 35.8458H23.444L22.94 36.7098L20.834 31.7238H20.798ZM31.1065 40.9578C30.5425 40.9578 30.1105 40.8138 29.8105 40.5258C29.5225 40.2258 29.3785 39.7998 29.3785 39.2478V29.9778C29.3785 29.4258 29.5225 29.0058 29.8105 28.7178C30.1105 28.4178 30.5425 28.2678 31.1065 28.2678H34.6345C36.8425 28.2678 38.5465 28.8198 39.7465 29.9238C40.9585 31.0278 41.5645 32.5878 41.5645 34.6038C41.5645 35.6118 41.4085 36.5118 41.0965 37.3038C40.7845 38.0838 40.3345 38.7498 39.7465 39.3018C39.1585 39.8418 38.4325 40.2558 37.5685 40.5438C36.7165 40.8198 35.7385 40.9578 34.6345 40.9578H31.1065ZM32.6905 38.2758H34.4185C35.0545 38.2758 35.6005 38.1978 36.0565 38.0418C36.5245 37.8858 36.9085 37.6578 37.2085 37.3578C37.5205 37.0578 37.7485 36.6798 37.8925 36.2238C38.0485 35.7678 38.1265 35.2278 38.1265 34.6038C38.1265 33.3558 37.8205 32.4378 37.2085 31.8498C36.5965 31.2498 35.6665 30.9498 34.4185 30.9498H32.6905V38.2758ZM48.7849 41.1558C48.3049 41.1558 47.8009 41.1198 47.2729 41.0478C46.7569 40.9878 46.2649 40.8918 45.7969 40.7598C45.3289 40.6278 44.9089 40.4718 44.5369 40.2918C44.2129 40.1358 43.9849 39.9318 43.8529 39.6798C43.7209 39.4158 43.6729 39.1398 43.7089 38.8518C43.7449 38.5638 43.8469 38.3118 44.0149 38.0958C44.1829 37.8678 44.4049 37.7178 44.6809 37.6458C44.9569 37.5618 45.2689 37.5978 45.6169 37.7538C46.0729 37.9698 46.5889 38.1378 47.1649 38.2578C47.7409 38.3778 48.2809 38.4378 48.7849 38.4378C49.5769 38.4378 50.1289 38.3358 50.4409 38.1318C50.7649 37.9158 50.9269 37.6518 50.9269 37.3398C50.9269 37.0638 50.8129 36.8418 50.5849 36.6738C50.3689 36.5058 49.9789 36.3618 49.4149 36.2418L47.3089 35.7918C46.1569 35.5518 45.2989 35.1318 44.7349 34.5318C44.1709 33.9318 43.8889 33.1578 43.8889 32.2098C43.8889 31.5858 44.0149 31.0218 44.2669 30.5178C44.5309 30.0018 44.8969 29.5638 45.3649 29.2038C45.8449 28.8438 46.4089 28.5678 47.0569 28.3758C47.7169 28.1718 48.4489 28.0698 49.2529 28.0698C49.8769 28.0698 50.5069 28.1418 51.1429 28.2858C51.7909 28.4178 52.3489 28.6218 52.8169 28.8978C53.0929 29.0418 53.2909 29.2398 53.4109 29.4918C53.5309 29.7438 53.5789 30.0078 53.5549 30.2838C53.5309 30.5478 53.4349 30.7818 53.2669 30.9858C53.1109 31.1898 52.8949 31.3278 52.6189 31.3998C52.3549 31.4598 52.0369 31.4118 51.6649 31.2558C51.3169 31.0998 50.9209 30.9858 50.4769 30.9138C50.0449 30.8298 49.6249 30.7878 49.2169 30.7878C48.7729 30.7878 48.3949 30.8418 48.0829 30.9498C47.7709 31.0458 47.5309 31.1898 47.3629 31.3818C47.2069 31.5738 47.1289 31.7958 47.1289 32.0478C47.1289 32.2998 47.2309 32.5158 47.4349 32.6958C47.6509 32.8638 48.0409 33.0078 48.6049 33.1278L50.6929 33.5778C51.8569 33.8298 52.7269 34.2438 53.3029 34.8198C53.8789 35.3958 54.1669 36.1458 54.1669 37.0698C54.1669 37.6938 54.0409 38.2578 53.7889 38.7618C53.5369 39.2658 53.1769 39.6978 52.7089 40.0578C52.2409 40.4058 51.6769 40.6758 51.0169 40.8678C50.3569 41.0598 49.6129 41.1558 48.7849 41.1558Z" fill="white"/>
<rect x="51.5562" y="11.9578" width="4" height="56" rx="2" transform="rotate(45 51.5562 11.9578)" fill="white"/>
</svg>
