<svg width="68" height="68" viewBox="0 0 68 68" fill="none" xmlns="http://www.w3.org/2000/svg">
<path d="M53.7846 26.0605V32.1404C53.7846 32.3569 53.6998 32.5735 53.5587 32.7427C50.4342 36.4507 41.4079 37.7686 34.001 37.7686C26.5844 37.7686 17.5587 36.4508 14.425 32.7427C14.2835 32.5735 14.2085 32.3569 14.2085 32.1404V26.0605L32.5799 30.0324C33.013 30.1454 33.4741 30.1923 34.001 30.1923C34.5094 30.1923 34.9893 30.1454 35.3844 30.0418L53.7846 26.0605Z" fill="white"/>
<path d="M64.9742 19.9521C64.9742 21.0061 64.2778 21.8628 63.252 22.0887L60.052 22.7851V33.1757C61.4828 33.7217 62.5086 35.5003 62.518 37.665L62.2921 37.4391C61.7649 36.9685 61.097 36.7052 60.4001 36.7052C60.2684 36.7052 60.1367 36.7145 60.0238 36.7333L55.713 37.298C55.8353 35.3029 56.8237 33.6837 58.1693 33.1757V23.1895L34.9875 28.2061C34.6674 28.2816 34.3286 28.3097 33.9992 28.3097C33.6603 28.3097 33.3308 28.2816 33.0201 28.2061L4.73785 22.0883C3.7124 21.8628 3.02539 21.0061 3.02539 19.9522C3.02539 18.9075 3.71244 18.0508 4.7383 17.825L33.0206 11.6978C33.6509 11.5661 34.3384 11.5567 34.9876 11.6978L63.2504 17.825C64.2768 18.0513 64.9732 18.9076 64.9732 19.9522L64.9742 19.9521Z" fill="white"/>
<path d="M35.9969 50.7682L36.146 50.7851V41.7686L33.9907 42.0507L31.8447 41.7686V50.7851L31.9987 50.7677L30.0385 55.0726C29.8229 55.5458 30.0323 56.1039 30.505 56.3195C30.9849 56.5369 31.5381 56.3213 31.7519 55.853L33.9978 50.9204L36.2438 55.8525C36.4598 56.3257 37.0188 56.5347 37.4906 56.319C37.9634 56.1034 38.1728 55.5454 37.9571 55.0722L35.9969 50.7682Z" fill="white"/>
<path d="M29.9628 41.5248L7.73193 38.5976C7.45917 38.5601 7.18596 38.6445 6.97881 38.8329C5.34133 40.3012 4.8235 44.3012 5.03059 47.6047C5.13416 49.3083 5.54844 52.3199 7.07299 53.3739C7.2328 53.4868 7.4212 53.5431 7.60959 53.5431C7.64709 53.5431 7.68504 53.5431 7.71316 53.5337L29.9623 51.0021L29.9628 41.5248Z" fill="white"/>
<path d="M61.747 39.7453C61.5211 39.3596 61.2764 39.0676 61.0224 38.8324C60.8153 38.644 60.5425 38.5596 60.2693 38.5971L38.0293 41.5243V51.002L60.2887 53.5337C60.5146 53.5618 60.7405 53.5055 60.9289 53.3739C63.6298 51.4912 63.4699 42.7668 61.7477 39.7453L61.747 39.7453Z" fill="white"/>
</svg>
