<svg width="68" height="68" viewBox="0 0 68 68" fill="none" xmlns="http://www.w3.org/2000/svg">
<path d="M22.5518 5.43163C22.0491 4.94547 21.3754 4.67672 20.6763 4.68297C19.9772 4.68922 19.308 4.96957 18.8138 5.46377C18.3192 5.95841 18.0388 6.6272 18.033 7.32628C18.0268 8.02539 18.2955 8.69908 18.7812 9.20217L27.5625 17.9834H12.6665C10.5451 17.9834 8.51028 18.8263 7.00982 20.3267C5.50936 21.8267 4.6665 23.8616 4.6665 25.9834V55.3171C4.6665 57.439 5.50936 59.4734 7.00982 60.9738C8.51028 62.4738 10.5451 63.3171 12.6665 63.3171H55.3339C57.4553 63.3171 59.4902 62.4738 60.9906 60.9738C62.4906 59.4734 63.3339 57.439 63.3339 55.3171V25.9834C63.3339 23.8616 62.4906 21.8267 60.9906 20.3267C59.4902 18.8263 57.4553 17.9834 55.3339 17.9834H40.4379L49.2192 9.20217C49.7049 8.69905 49.9737 8.02537 49.9679 7.32628C49.9616 6.62717 49.6808 5.9584 49.1866 5.46377C48.692 4.96957 48.0232 4.68922 47.3241 4.68297C46.625 4.67672 45.9513 4.94547 45.4487 5.43163L34.0007 16.8796L22.5518 5.43163ZM9.99977 25.9836C9.99977 25.2765 10.2806 24.5979 10.781 24.0979C11.281 23.5979 11.9592 23.3171 12.6663 23.3171H55.3337C56.0408 23.3171 56.719 23.5979 57.219 24.0979C57.719 24.5979 58.0002 25.2764 58.0002 25.9836V55.3173C58.0002 56.0245 57.719 56.7026 57.219 57.2026C56.719 57.703 56.0408 57.9838 55.3337 57.9838H12.6663C11.9591 57.9838 11.281 57.703 10.781 57.2026C10.2806 56.7026 9.99977 56.0244 9.99977 55.3173V25.9836Z" fill="white"/>
<path d="M19.2081 48.2108C17.9028 48.2108 16.9274 47.8514 16.2821 47.1327C15.6368 46.3994 15.3141 45.3141 15.3141 43.8767V33.9547C15.3141 33.3974 15.4534 32.9794 15.7321 32.7007C16.0254 32.4074 16.4434 32.2607 16.9861 32.2607C17.5141 32.2607 17.9174 32.4074 18.1961 32.7007C18.4894 32.9794 18.6361 33.3974 18.6361 33.9547V43.7447C18.6361 44.3461 18.7608 44.7934 19.0101 45.0867C19.2741 45.3654 19.6188 45.5047 20.0441 45.5047C20.1614 45.5047 20.2714 45.4974 20.3741 45.4827C20.4768 45.4681 20.5868 45.4607 20.7041 45.4607C20.9388 45.4314 21.1001 45.5047 21.1881 45.6807C21.2908 45.8421 21.3421 46.1721 21.3421 46.6707C21.3421 47.1107 21.2541 47.4481 21.0781 47.6827C20.9021 47.9027 20.6308 48.0494 20.2641 48.1228C20.1174 48.1374 19.9488 48.1521 19.7581 48.1668C19.5674 48.1961 19.3841 48.2108 19.2081 48.2108ZM24.9723 48.1448C24.4296 48.1448 24.0116 47.9908 23.7183 47.6827C23.4396 47.3601 23.3003 46.9127 23.3003 46.3407V38.8167C23.3003 38.2301 23.4396 37.7827 23.7183 37.4747C24.0116 37.1521 24.4296 36.9907 24.9723 36.9907C25.5003 36.9907 25.9036 37.1521 26.1823 37.4747C26.4756 37.7827 26.6223 38.2301 26.6223 38.8167V46.3407C26.6223 46.9127 26.4829 47.3601 26.2043 47.6827C25.9256 47.9908 25.5149 48.1448 24.9723 48.1448ZM24.9723 35.1867C24.3563 35.1867 23.8796 35.0474 23.5423 34.7687C23.2196 34.4754 23.0583 34.0647 23.0583 33.5367C23.0583 32.9941 23.2196 32.5834 23.5423 32.3047C23.8796 32.0114 24.3563 31.8647 24.9723 31.8647C25.5883 31.8647 26.0576 32.0114 26.3803 32.3047C26.7029 32.5834 26.8643 32.9941 26.8643 33.5367C26.8643 34.0647 26.7029 34.4754 26.3803 34.7687C26.0576 35.0474 25.5883 35.1867 24.9723 35.1867ZM34.423 48.1668C33.9976 48.1668 33.6236 48.0568 33.301 47.8367C32.9783 47.6021 32.7216 47.2574 32.531 46.8027L29.209 39.1467C29.0476 38.7654 28.989 38.4134 29.033 38.0907C29.077 37.7534 29.231 37.4894 29.495 37.2987C29.7736 37.0934 30.155 36.9907 30.639 36.9907C31.035 36.9907 31.3576 37.0861 31.607 37.2767C31.8563 37.4527 32.0763 37.7974 32.267 38.3107L34.863 44.9107H34.159L36.865 38.2887C37.0703 37.7901 37.2976 37.4527 37.547 37.2767C37.7963 37.0861 38.141 36.9907 38.581 36.9907C38.9623 36.9907 39.263 37.0934 39.483 37.2987C39.7176 37.4894 39.857 37.7461 39.901 38.0687C39.9596 38.3914 39.901 38.7434 39.725 39.1247L36.337 46.8027C36.1463 47.2721 35.8896 47.6167 35.567 47.8367C35.259 48.0568 34.8776 48.1668 34.423 48.1668ZM47.6111 48.2108C46.3351 48.2108 45.2351 47.9834 44.3111 47.5287C43.4018 47.0594 42.6978 46.4067 42.1991 45.5707C41.7151 44.7201 41.4731 43.7227 41.4731 42.5787C41.4731 41.4641 41.7078 40.4887 42.1771 39.6527C42.6465 38.8021 43.2991 38.1421 44.1351 37.6727C44.9858 37.1887 45.9465 36.9467 47.0171 36.9467C47.7945 36.9467 48.4985 37.0787 49.1291 37.3427C49.7598 37.5921 50.3025 37.9587 50.7571 38.4427C51.2118 38.9121 51.5565 39.4914 51.7911 40.1807C52.0258 40.8554 52.1431 41.6107 52.1431 42.4467C52.1431 42.7254 52.0551 42.9381 51.8791 43.0847C51.7031 43.2167 51.4465 43.2827 51.1091 43.2827H44.2011V41.5667H49.7451L49.3931 41.8747C49.3931 41.2734 49.3051 40.7747 49.1291 40.3787C48.9531 39.9681 48.6965 39.6601 48.3591 39.4547C48.0365 39.2494 47.6331 39.1467 47.1491 39.1467C46.6065 39.1467 46.1445 39.2714 45.7631 39.5207C45.3818 39.7701 45.0885 40.1294 44.8831 40.5987C44.6778 41.0681 44.5751 41.6327 44.5751 42.2927V42.4688C44.5751 43.5834 44.8318 44.4047 45.3451 44.9327C45.8731 45.4607 46.6505 45.7247 47.6771 45.7247C48.0291 45.7247 48.4325 45.6807 48.8871 45.5927C49.3418 45.5047 49.7671 45.3654 50.1631 45.1747C50.5005 45.0134 50.8011 44.9621 51.0651 45.0207C51.3291 45.0647 51.5345 45.1821 51.6811 45.3727C51.8278 45.5634 51.9085 45.7834 51.9231 46.0327C51.9525 46.2821 51.9011 46.5314 51.7691 46.7807C51.6371 47.0154 51.4171 47.2134 51.1091 47.3747C50.6105 47.6534 50.0458 47.8587 49.4151 47.9908C48.7991 48.1374 48.1978 48.2108 47.6111 48.2108Z" fill="white"/>
</svg>
